<svg id="visual" viewBox="0 0 900 600" width="900" height="600" xmlns="http://www.w3.org/2000/svg" xmlns:xlink="http://www.w3.org/1999/xlink" version="1.1"><rect x="0" y="0" width="900" height="600" fill="#1C1248"></rect><defs><linearGradient id="grad1_0" x1="33.3%" y1="100%" x2="100%" y2="0%"><stop offset="20%" stop-color="#003a78" stop-opacity="1"></stop><stop offset="80%" stop-color="#003a78" stop-opacity="1"></stop></linearGradient></defs><defs><linearGradient id="grad1_1" x1="33.3%" y1="100%" x2="100%" y2="0%"><stop offset="20%" stop-color="#003a78" stop-opacity="1"></stop><stop offset="80%" stop-color="#0c3370" stop-opacity="1"></stop></linearGradient></defs><defs><linearGradient id="grad1_2" x1="33.3%" y1="100%" x2="100%" y2="0%"><stop offset="20%" stop-color="#132d68" stop-opacity="1"></stop><stop offset="80%" stop-color="#0c3370" stop-opacity="1"></stop></linearGradient></defs><defs><linearGradient id="grad1_3" x1="33.3%" y1="100%" x2="100%" y2="0%"><stop offset="20%" stop-color="#132d68" stop-opacity="1"></stop><stop offset="80%" stop-color="#172660" stop-opacity="1"></stop></linearGradient></defs><defs><linearGradient id="grad1_4" x1="33.3%" y1="100%" x2="100%" y2="0%"><stop offset="20%" stop-color="#1a1f58" stop-opacity="1"></stop><stop offset="80%" stop-color="#172660" stop-opacity="1"></stop></linearGradient></defs><defs><linearGradient id="grad1_5" x1="33.3%" y1="100%" x2="100%" y2="0%"><stop offset="20%" stop-color="#1a1f58" stop-opacity="1"></stop><stop offset="80%" stop-color="#1b1950" stop-opacity="1"></stop></linearGradient></defs><defs><linearGradient id="grad1_6" x1="33.3%" y1="100%" x2="100%" y2="0%"><stop offset="20%" stop-color="#1c1248" stop-opacity="1"></stop><stop offset="80%" stop-color="#1b1950" stop-opacity="1"></stop></linearGradient></defs><defs><linearGradient id="grad2_0" x1="0%" y1="100%" x2="66.7%" y2="0%"><stop offset="20%" stop-color="#003a78" stop-opacity="1"></stop><stop offset="80%" stop-color="#003a78" stop-opacity="1"></stop></linearGradient></defs><defs><linearGradient id="grad2_1" x1="0%" y1="100%" x2="66.7%" y2="0%"><stop offset="20%" stop-color="#0c3370" stop-opacity="1"></stop><stop offset="80%" stop-color="#003a78" stop-opacity="1"></stop></linearGradient></defs><defs><linearGradient id="grad2_2" x1="0%" y1="100%" x2="66.7%" y2="0%"><stop offset="20%" stop-color="#0c3370" stop-opacity="1"></stop><stop offset="80%" stop-color="#132d68" stop-opacity="1"></stop></linearGradient></defs><defs><linearGradient id="grad2_3" x1="0%" y1="100%" x2="66.7%" y2="0%"><stop offset="20%" stop-color="#172660" stop-opacity="1"></stop><stop offset="80%" stop-color="#132d68" stop-opacity="1"></stop></linearGradient></defs><defs><linearGradient id="grad2_4" x1="0%" y1="100%" x2="66.7%" y2="0%"><stop offset="20%" stop-color="#172660" stop-opacity="1"></stop><stop offset="80%" stop-color="#1a1f58" stop-opacity="1"></stop></linearGradient></defs><defs><linearGradient id="grad2_5" x1="0%" y1="100%" x2="66.7%" y2="0%"><stop offset="20%" stop-color="#1b1950" stop-opacity="1"></stop><stop offset="80%" stop-color="#1a1f58" stop-opacity="1"></stop></linearGradient></defs><defs><linearGradient id="grad2_6" x1="0%" y1="100%" x2="66.7%" y2="0%"><stop offset="20%" stop-color="#1b1950" stop-opacity="1"></stop><stop offset="80%" stop-color="#1c1248" stop-opacity="1"></stop></linearGradient></defs><g transform="translate(900, 600)"><path d="M-540.8 0C-531.7 -103.2 -522.5 -206.5 -468.4 -270.4C-414.2 -334.4 -315.1 -359 -229.5 -397.5C-143.9 -436 -72 -488.4 0 -540.8L0 0Z" fill="#1c154c"></path><path d="M-463.6 0C-455.7 -88.5 -447.9 -177 -401.5 -231.8C-355 -286.6 -270.1 -307.7 -196.7 -340.7C-123.4 -373.7 -61.7 -418.7 0 -463.6L0 0Z" fill="#1b1c54"></path><path d="M-386.3 0C-379.8 -73.7 -373.2 -147.5 -334.6 -193.2C-295.9 -238.8 -225 -256.4 -163.9 -283.9C-102.8 -311.4 -51.4 -348.9 0 -386.3L0 0Z" fill="#19235c"></path><path d="M-309 0C-303.8 -59 -298.6 -118 -267.6 -154.5C-236.7 -191.1 -180 -205.1 -131.1 -227.1C-82.2 -249.2 -41.1 -279.1 0 -309L0 0Z" fill="#152964"></path><path d="M-231.8 0C-227.9 -44.2 -223.9 -88.5 -200.7 -115.9C-177.5 -143.3 -135 -153.9 -98.4 -170.4C-61.7 -186.9 -30.8 -209.3 0 -231.8L0 0Z" fill="#10306c"></path><path d="M-154.5 0C-151.9 -29.5 -149.3 -59 -133.8 -77.3C-118.3 -95.5 -90 -102.6 -65.6 -113.6C-41.1 -124.6 -20.6 -139.6 0 -154.5L0 0Z" fill="#063774"></path><path d="M-77.3 0C-76 -14.7 -74.6 -29.5 -66.9 -38.6C-59.2 -47.8 -45 -51.3 -32.8 -56.8C-20.6 -62.3 -10.3 -69.8 0 -77.3L0 0Z" fill="#003a78"></path></g><g transform="translate(0, 0)"><path d="M540.8 0C531.8 103.5 522.8 206.9 468.4 270.4C414 333.9 314.1 357.4 228.5 395.8C142.9 434.2 71.4 487.5 0 540.8L0 0Z" fill="#1c154c"></path><path d="M463.6 0C455.8 88.7 448.1 177.4 401.5 231.8C354.8 286.2 269.3 306.3 195.9 339.2C122.5 372.2 61.2 417.9 0 463.6L0 0Z" fill="#1b1c54"></path><path d="M386.3 0C379.9 73.9 373.4 147.8 334.6 193.2C295.7 238.5 224.4 255.3 163.2 282.7C102.1 310.1 51 348.2 0 386.3L0 0Z" fill="#19235c"></path><path d="M309 0C303.9 59.1 298.7 118.3 267.6 154.5C236.5 190.8 179.5 204.2 130.6 226.2C81.6 248.1 40.8 278.6 0 309L0 0Z" fill="#152964"></path><path d="M231.8 0C227.9 44.3 224.1 88.7 200.7 115.9C177.4 143.1 134.6 153.2 97.9 169.6C61.2 186.1 30.6 208.9 0 231.8L0 0Z" fill="#10306c"></path><path d="M154.5 0C151.9 29.6 149.4 59.1 133.8 77.3C118.3 95.4 89.8 102.1 65.3 113.1C40.8 124.1 20.4 139.3 0 154.5L0 0Z" fill="#063774"></path><path d="M77.3 0C76 14.8 74.7 29.6 66.9 38.6C59.1 47.7 44.9 51.1 32.6 56.5C20.4 62 10.2 69.6 0 77.3L0 0Z" fill="#003a78"></path></g></svg>